<svg width="16" height="12" viewBox="0 0 16 12" fill="none" xmlns="http://www.w3.org/2000/svg">
<path d="M1.74757 3.11359C1.38075 2.70072 0.748685 2.66339 0.335815 3.03021C-0.0770557 3.39703 -0.114387 4.02909 0.252432 4.44196L1.74757 3.11359ZM7.41667 11L6.6691 11.6642C6.86787 11.8879 7.1564 12.0109 7.45545 11.9992C7.7545 11.9876 8.03263 11.8427 8.21347 11.6042L7.41667 11ZM15.7968 1.60424C16.1305 1.16418 16.0443 0.536912 15.6042 0.203198C15.1642 -0.130515 14.5369 -0.0443025 14.2032 0.395759L15.7968 1.60424ZM0.252432 4.44196L6.6691 11.6642L8.16423 10.3358L1.74757 3.11359L0.252432 4.44196ZM8.21347 11.6042L15.7968 1.60424L14.2032 0.395759L6.61986 10.3958L8.21347 11.6042Z" fill="white"/>
</svg>
